<!-- Created with Inkscape (http://www.inkscape.org/) -->
<svg xmlns:rdf="http://www.w3.org/1999/02/22-rdf-syntax-ns#" xmlns="http://www.w3.org/2000/svg" version="1.1" xmlns:cc="http://creativecommons.org/ns#" xmlns:dc="http://purl.org/dc/elements/1.1/" viewBox="0 0 990 311.99">
 <defs>
  <clipPath id="clipPath3001" clipPathUnits="userSpaceOnUse">
   <path d="M0,864,864,864,864,0,0,0,0,864z"/>
  </clipPath>
 </defs>
 <metadata>
  <rdf:RDF>
   <cc:Work rdf:about="">
    <dc:format>image/svg+xml</dc:format>
    <dc:type rdf:resource="http://purl.org/dc/dcmitype/StillImage"/>
    <dc:title/>
   </cc:Work>
  </rdf:RDF>
 </metadata>
 <g transform="translate(120,-376.3652)">
  <g transform="matrix(1.25,0,0,-1.25,-159.84988,1247.7777)">
   <g clip-path="url(#clipPath3001)">
    <g transform="translate(207.9219,572.332)">
     <path d="m0,0c0-3.954-1.454-7.381-4.358-10.285-2.907-2.907-6.334-4.358-10.283-4.358-3.956,0-7.381,1.451-10.286,4.358-2.906,2.904-4.358,6.331-4.358,10.285,0,3.949,1.452,7.376,4.358,10.283,2.905,2.904,6.33,4.358,10.286,4.358,3.949,0,7.376-1.454,10.283-4.358,2.904-2.907,4.358-6.334,4.358-10.283m-36.604-110.16c0-3.954-1.454-7.381-4.358-10.282-2.907-2.911-6.333-4.358-10.282-4.358-3.955,0-7.382,1.447-10.283,4.358-2.91,2.901-4.358,6.328-4.358,10.282,0,3.949,1.448,7.376,4.358,10.282,2.901,2.905,6.328,4.358,10.283,4.358,3.949,0,7.375-1.453,10.282-4.358,2.904-2.906,4.358-6.333,4.358-10.282m0,36.603c0-3.954-1.454-7.381-4.358-10.285-2.907-2.907-6.333-4.355-10.282-4.355-3.955,0-7.382,1.448-10.283,4.355-2.91,2.904-4.358,6.331-4.358,10.285,0,3.949,1.448,7.376,4.358,10.283,2.901,2.904,6.328,4.357,10.283,4.357,3.949,0,7.375-1.453,10.282-4.357,2.904-2.907,4.358-6.334,4.358-10.283m0,36.95c0-3.954-1.454-7.38-4.358-10.282-2.907-2.909-6.333-4.357-10.282-4.357-3.955,0-7.382,1.448-10.283,4.357-2.91,2.902-4.358,6.328-4.358,10.282,0,3.95,1.448,7.376,4.358,10.283,2.901,2.904,6.328,4.358,10.283,4.358,3.949,0,7.375-1.454,10.282-4.358,2.904-2.907,4.358-6.333,4.358-10.283m0,36.604c0-3.954-1.454-7.381-4.358-10.285-2.907-2.907-6.333-4.358-10.282-4.358-3.955,0-7.382,1.451-10.283,4.358-2.91,2.904-4.358,6.331-4.358,10.285,0,3.949,1.448,7.376,4.358,10.283,2.901,2.904,6.328,4.358,10.283,4.358,3.949,0,7.375-1.454,10.282-4.358,2.904-2.907,4.358-6.334,4.358-10.283m0,36.604c0-3.955-1.454-7.381-4.358-10.286-2.907-2.907-6.333-4.358-10.282-4.358-3.955,0-7.382,1.451-10.283,4.358-2.91,2.905-4.358,6.331-4.358,10.286,0,3.946,1.448,7.373,4.358,10.282,2.901,2.905,6.328,4.358,10.283,4.358,3.949,0,7.375-1.453,10.282-4.358,2.904-2.909,4.358-6.336,4.358-10.282m0,36.6c0-3.954-1.454-7.378-4.358-10.282-2.907-2.91-6.333-4.358-10.282-4.358-3.955,0-7.382,1.448-10.283,4.358-2.91,2.904-4.358,6.328-4.358,10.282,0,3.949,1.448,7.437,4.358,10.458,2.901,3.018,6.328,4.532,10.283,4.532,3.949,0,7.375-1.514,10.282-4.532,2.904-3.021,4.358-6.509,4.358-10.458m0,36.95c0-3.951-1.454-7.378-4.358-10.282-2.907-2.907-6.333-4.357-10.282-4.357-3.955,0-7.382,1.45-10.283,4.357-2.91,2.904-4.358,6.331-4.358,10.282,0,3.95,1.448,7.376,4.358,10.286,2.901,2.901,6.328,4.358,10.283,4.358,3.949,0,7.375-1.457,10.282-4.358,2.904-2.91,4.358-6.336,4.358-10.286m-36.601-110.15c0-3.954-1.456-7.381-4.358-10.285-2.909-2.907-6.336-4.358-10.285-4.358-3.954,0-7.378,1.451-10.283,4.358-2.909,2.904-4.357,6.331-4.357,10.285,0,3.949,1.448,7.376,4.357,10.283,2.905,2.904,6.329,4.358,10.283,4.358,3.949,0,7.376-1.454,10.285-4.358,2.902-2.907,4.358-6.334,4.358-10.283m0,73.204c0-3.954-1.456-7.378-4.358-10.282-2.909-2.91-6.336-4.358-10.285-4.358-3.954,0-7.378,1.448-10.283,4.358-2.909,2.904-4.357,6.328-4.357,10.282,0,3.949,1.448,7.437,4.357,10.458,2.905,3.018,6.329,4.532,10.283,4.532,3.949,0,7.376-1.514,10.285-4.532,2.902-3.021,4.358-6.509,4.358-10.458m-36.953-73.204c0-3.954-1.453-7.381-4.358-10.285-2.907-2.907-6.333-4.358-10.283-4.358-3.954,0-7.381,1.451-10.282,4.358-2.91,2.904-4.358,6.331-4.358,10.285,0,3.949,1.448,7.376,4.358,10.283,2.901,2.904,6.328,4.358,10.282,4.358,3.95,0,7.376-1.454,10.283-4.358,2.905-2.907,4.358-6.334,4.358-10.283m0,36.604c0-3.955-1.453-7.381-4.358-10.286-2.907-2.907-6.333-4.358-10.283-4.358-3.954,0-7.381,1.451-10.282,4.358-2.91,2.905-4.358,6.331-4.358,10.286,0,3.946,1.448,7.373,4.358,10.282,2.901,2.905,6.328,4.358,10.282,4.358,3.95,0,7.376-1.453,10.283-4.358,2.905-2.909,4.358-6.336,4.358-10.282m-36.6-36.604c0-3.954-1.456-7.381-4.357-10.285-2.909-2.907-6.337-4.358-10.285-4.358-3.954,0-7.379,1.451-10.284,4.358-2.909,2.904-4.357,6.331-4.357,10.285,0,3.949,1.448,7.376,4.357,10.283,2.905,2.904,6.33,4.358,10.284,4.358,3.948,0,7.376-1.454,10.285-4.358,2.901-2.907,4.357-6.334,4.357-10.283" fill-rule="nonzero" fill="#FFF"/>
    </g>
    <g transform="translate(413.2393,498.7778)">
     <path d="m0,0c0-3.954-1.453-7.381-4.357-10.285-2.907-2.907-6.333-4.355-10.282-4.355-3.956,0-7.382,1.448-10.287,4.355-2.906,2.904-4.357,6.331-4.357,10.285,0,3.949,1.451,7.376,4.357,10.283,2.905,2.904,6.331,4.358,10.287,4.358,3.949,0,7.375-1.454,10.282-4.358,2.904-2.907,4.357-6.334,4.357-10.283m0,36.951c0-3.954-1.453-7.381-4.357-10.283-2.907-2.909-6.333-4.357-10.282-4.357-3.956,0-7.382,1.448-10.287,4.357-2.906,2.902-4.357,6.329-4.357,10.283,0,3.949,1.451,7.376,4.357,10.282,2.905,2.905,6.331,4.358,10.287,4.358,3.949,0,7.375-1.453,10.282-4.358,2.904-2.906,4.357-6.333,4.357-10.282m-36.603-73.554c0-3.954-1.454-7.381-4.357-10.282-2.907-2.91-6.333-4.358-10.283-4.358-3.954,0-7.381,1.448-10.283,4.358-2.91,2.901-4.358,6.328-4.358,10.282,0,3.949,1.448,7.376,4.358,10.283,2.902,2.904,6.329,4.357,10.283,4.357,3.95,0,7.376-1.453,10.283-4.357,2.903-2.907,4.357-6.334,4.357-10.283m0,110.16c0-3.954-1.454-7.381-4.357-10.285-2.907-2.907-6.333-4.357-10.283-4.357-3.954,0-7.381,1.45-10.283,4.357-2.91,2.904-4.358,6.331-4.358,10.285,0,3.949,1.448,7.376,4.358,10.283,2.902,2.904,6.329,4.358,10.283,4.358,3.95,0,7.376-1.454,10.283-4.358,2.903-2.907,4.357-6.334,4.357-10.283m0,110.15c0-3.951-1.454-7.377-4.357-10.282-2.907-2.906-6.333-4.357-10.283-4.357-3.954,0-7.381,1.451-10.283,4.357-2.91,2.905-4.358,6.331-4.358,10.282,0,3.95,1.448,7.376,4.358,10.286,2.902,2.902,6.329,4.358,10.283,4.358,3.95,0,7.376-1.456,10.283-4.358,2.903-2.91,4.357-6.336,4.357-10.286m-36.6-220.31c0-3.954-1.456-7.381-4.358-10.282-2.91-2.91-6.336-4.358-10.286-4.358-3.954,0-7.378,1.448-10.282,4.358-2.91,2.901-4.357,6.328-4.357,10.282,0,3.949,1.447,7.376,4.357,10.283,2.904,2.904,6.328,4.357,10.282,4.357,3.95,0,7.376-1.453,10.286-4.357,2.902-2.907,4.358-6.334,4.358-10.283m0,110.16c0-3.954-1.456-7.381-4.358-10.285-2.91-2.907-6.336-4.357-10.286-4.357-3.954,0-7.378,1.45-10.282,4.357-2.91,2.904-4.357,6.331-4.357,10.285,0,3.949,1.447,7.376,4.357,10.283,2.904,2.904,6.328,4.358,10.282,4.358,3.95,0,7.376-1.454,10.286-4.358,2.902-2.907,4.358-6.334,4.358-10.283m0,110.15c0-3.951-1.456-7.377-4.358-10.282-2.91-2.906-6.336-4.357-10.286-4.357-3.954,0-7.378,1.451-10.282,4.357-2.91,2.905-4.357,6.331-4.357,10.282,0,3.95,1.447,7.376,4.357,10.286,2.904,2.902,6.328,4.358,10.282,4.358,3.95,0,7.376-1.456,10.286-4.358,2.902-2.91,4.358-6.336,4.358-10.286m-36.953-220.31c0-3.954-1.454-7.381-4.359-10.282-2.906-2.91-6.333-4.358-10.282-4.358-3.954,0-7.382,1.448-10.283,4.358-2.909,2.901-4.358,6.328-4.358,10.282,0,3.949,1.449,7.376,4.358,10.283,2.901,2.904,6.329,4.357,10.283,4.357,3.949,0,7.376-1.453,10.282-4.357,2.905-2.907,4.359-6.334,4.359-10.283m0,110.16c0-3.954-1.454-7.381-4.359-10.285-2.906-2.907-6.333-4.357-10.282-4.357-3.954,0-7.382,1.45-10.283,4.357-2.909,2.904-4.358,6.331-4.358,10.285,0,3.949,1.449,7.376,4.358,10.283,2.901,2.904,6.329,4.358,10.283,4.358,3.949,0,7.376-1.454,10.282-4.358,2.905-2.907,4.359-6.334,4.359-10.283m0,110.15c0-3.951-1.454-7.377-4.359-10.282-2.906-2.906-6.333-4.357-10.282-4.357-3.954,0-7.382,1.451-10.283,4.357-2.909,2.905-4.358,6.331-4.358,10.282,0,3.95,1.449,7.376,4.358,10.286,2.901,2.902,6.329,4.358,10.283,4.358,3.949,0,7.376-1.456,10.282-4.358,2.905-2.91,4.359-6.336,4.359-10.286m-18.125-36.95c0-3.954-1.457-7.378-4.359-10.282-2.91-2.91-6.336-4.358-10.286-4.358-3.954,0-7.378,1.448-10.281,4.358-2.91,2.904-4.357,6.328-4.357,10.282,0,4.186,1.447,7.723,4.357,10.633,2.903,2.904,6.327,4.358,10.281,4.358,3.95,0,7.376-1.454,10.286-4.358,2.902-2.91,4.359-6.447,4.359-10.633m-18.48-146.76c0-3.954-1.457-7.381-4.357-10.285-2.911-2.907-6.337-4.355-10.287-4.355-3.954,0-7.378,1.448-10.282,4.355-2.91,2.904-4.357,6.331-4.357,10.285,0,3.949,1.447,7.376,4.357,10.283,2.904,2.904,6.328,4.358,10.282,4.358,3.95,0,7.376-1.454,10.287-4.358,2.9-2.907,4.357-6.334,4.357-10.283m0,36.951c0-3.954-1.457-7.381-4.357-10.283-2.911-2.909-6.337-4.357-10.287-4.357-3.954,0-7.378,1.448-10.282,4.357-2.91,2.902-4.357,6.329-4.357,10.283,0,3.949,1.447,7.376,4.357,10.282,2.904,2.905,6.328,4.358,10.282,4.358,3.95,0,7.376-1.453,10.287-4.358,2.9-2.906,4.357-6.333,4.357-10.282m0,36.603c0-3.954-1.457-7.381-4.357-10.285-2.911-2.907-6.337-4.357-10.287-4.357-3.954,0-7.378,1.45-10.282,4.357-2.91,2.904-4.357,6.331-4.357,10.285,0,3.949,1.447,7.376,4.357,10.283,2.904,2.904,6.328,4.358,10.282,4.358,3.95,0,7.376-1.454,10.287-4.358,2.9-2.907,4.357-6.334,4.357-10.283m0,36.604c0-3.955-1.457-7.381-4.357-10.285-2.911-2.908-6.337-4.358-10.287-4.358-3.954,0-7.378,1.45-10.282,4.358-2.91,2.904-4.357,6.33-4.357,10.285,0,3.946,1.447,7.373,4.357,10.282,2.904,2.905,6.328,4.358,10.282,4.358,3.95,0,7.376-1.453,10.287-4.358,2.9-2.909,4.357-6.336,4.357-10.282" fill-rule="nonzero" fill="#FFF"/>
    </g>
    <g transform="translate(618.5605,498.7778)">
     <path d="m0,0c0-3.954-1.453-7.381-4.357-10.285-2.907-2.907-6.333-4.355-10.282-4.355-3.956,0-7.382,1.448-10.287,4.355-2.905,2.904-4.357,6.331-4.357,10.285,0,3.949,1.452,7.376,4.357,10.283,2.905,2.904,6.331,4.358,10.287,4.358,3.949,0,7.375-1.454,10.282-4.358,2.904-2.907,4.357-6.334,4.357-10.283m0,36.951c0-3.954-1.453-7.381-4.357-10.283-2.907-2.909-6.333-4.357-10.282-4.357-3.956,0-7.382,1.448-10.287,4.357-2.905,2.902-4.357,6.329-4.357,10.283,0,3.949,1.452,7.376,4.357,10.282,2.905,2.905,6.331,4.358,10.287,4.358,3.949,0,7.375-1.453,10.282-4.358,2.904-2.906,4.357-6.333,4.357-10.282m0,36.603c0-3.954-1.453-7.381-4.357-10.285-2.907-2.907-6.333-4.357-10.282-4.357-3.956,0-7.382,1.45-10.287,4.357-2.905,2.904-4.357,6.331-4.357,10.285,0,3.949,1.452,7.376,4.357,10.283,2.905,2.904,6.331,4.358,10.287,4.358,3.949,0,7.375-1.454,10.282-4.358,2.904-2.907,4.357-6.334,4.357-10.283m0,36.604c0-3.955-1.453-7.381-4.357-10.285-2.907-2.908-6.333-4.358-10.282-4.358-3.956,0-7.382,1.45-10.287,4.358-2.905,2.904-4.357,6.33-4.357,10.285,0,3.946,1.452,7.373,4.357,10.282,2.905,2.905,6.331,4.358,10.287,4.358,3.949,0,7.375-1.453,10.282-4.358,2.904-2.91,4.357-6.34,4.357-10.28m0,36.6c0-3.954-1.453-7.378-4.357-10.282-2.907-2.91-6.333-4.358-10.282-4.358-3.956,0-7.382,1.448-10.287,4.358-2.905,2.904-4.357,6.328-4.357,10.282,0,3.95,1.452,7.437,4.357,10.458,2.905,3.018,6.331,4.533,10.287,4.533,3.949,0,7.375-1.515,10.282-4.533,2.904-3.02,4.357-6.51,4.357-10.46m-36.603-183.36c0-3.954-1.454-7.381-4.357-10.282-2.907-2.91-6.333-4.358-10.283-4.358-3.954,0-7.382,1.448-10.282,4.358-2.911,2.901-4.359,6.328-4.359,10.282,0,3.949,1.448,7.376,4.359,10.283,2.9,2.904,6.328,4.357,10.282,4.357,3.95,0,7.376-1.453,10.283-4.357,2.903-2.907,4.357-6.334,4.357-10.283m0,220.31c0-3.951-1.454-7.377-4.357-10.282-2.907-2.906-6.333-4.357-10.283-4.357-3.954,0-7.382,1.451-10.282,4.357-2.911,2.905-4.359,6.331-4.359,10.282,0,3.95,1.448,7.376,4.359,10.286,2.9,2.902,6.328,4.358,10.282,4.358,3.95,0,7.376-1.456,10.283-4.358,2.903-2.91,4.357-6.336,4.357-10.286m-36.6-220.31c0-3.954-1.456-7.381-4.358-10.282-2.91-2.91-6.336-4.358-10.285-4.358-3.954,0-7.379,1.448-10.283,4.358-2.91,2.901-4.357,6.328-4.357,10.282,0,3.949,1.447,7.376,4.357,10.283,2.904,2.904,6.329,4.357,10.283,4.357,3.949,0,7.375-1.453,10.285-4.357,2.902-2.907,4.358-6.334,4.358-10.283m0,220.31c0-3.951-1.456-7.377-4.358-10.282-2.91-2.906-6.336-4.357-10.285-4.357-3.954,0-7.379,1.451-10.283,4.357-2.91,2.905-4.357,6.331-4.357,10.282,0,3.95,1.447,7.376,4.357,10.286,2.904,2.902,6.329,4.358,10.283,4.358,3.949,0,7.375-1.456,10.285-4.358,2.902-2.91,4.358-6.336,4.358-10.286m-36.953-220.31c0-3.954-1.454-7.381-4.358-10.282-2.907-2.91-6.334-4.358-10.283-4.358-3.954,0-7.382,1.448-10.283,4.358-2.909,2.901-4.358,6.328-4.358,10.282,0,3.949,1.449,7.376,4.358,10.283,2.901,2.904,6.329,4.357,10.283,4.357,3.949,0,7.376-1.453,10.283-4.357,2.904-2.907,4.358-6.334,4.358-10.283m0,220.31c0-3.951-1.454-7.377-4.358-10.282-2.907-2.906-6.334-4.357-10.283-4.357-3.954,0-7.382,1.451-10.283,4.357-2.909,2.905-4.358,6.331-4.358,10.282,0,3.95,1.449,7.376,4.358,10.286,2.901,2.902,6.329,4.358,10.283,4.358,3.949,0,7.376-1.456,10.283-4.358,2.904-2.91,4.358-6.336,4.358-10.286m-36.6-183.71c0-3.954-1.456-7.381-4.357-10.285-2.911-2.907-6.337-4.355-10.285-4.355-3.956,0-7.38,1.448-10.284,4.355-2.91,2.904-4.357,6.331-4.357,10.285,0,3.949,1.447,7.376,4.357,10.283,2.904,2.904,6.328,4.358,10.284,4.358,3.948,0,7.374-1.454,10.285-4.358,2.901-2.907,4.357-6.334,4.357-10.283m0,36.951c0-3.954-1.456-7.381-4.357-10.283-2.911-2.909-6.337-4.357-10.285-4.357-3.956,0-7.38,1.448-10.284,4.357-2.91,2.902-4.357,6.329-4.357,10.283,0,3.949,1.447,7.376,4.357,10.282,2.904,2.905,6.328,4.358,10.284,4.358,3.948,0,7.374-1.453,10.285-4.358,2.901-2.906,4.357-6.333,4.357-10.282m0,36.603c0-3.954-1.456-7.381-4.357-10.285-2.911-2.907-6.337-4.357-10.285-4.357-3.956,0-7.38,1.45-10.284,4.357-2.91,2.904-4.357,6.331-4.357,10.285,0,3.949,1.447,7.376,4.357,10.283,2.904,2.904,6.328,4.358,10.284,4.358,3.948,0,7.374-1.454,10.285-4.358,2.901-2.907,4.357-6.334,4.357-10.283m0,36.604c0-3.955-1.456-7.381-4.357-10.285-2.911-2.908-6.337-4.358-10.285-4.358-3.956,0-7.38,1.45-10.284,4.358-2.91,2.904-4.357,6.33-4.357,10.285,0,3.946,1.447,7.373,4.357,10.282,2.904,2.905,6.328,4.358,10.284,4.358,3.948,0,7.374-1.453,10.285-4.358,2.901-2.909,4.357-6.336,4.357-10.282m0,36.6c0-3.954-1.456-7.378-4.357-10.282-2.911-2.91-6.337-4.358-10.285-4.358-3.956,0-7.38,1.448-10.284,4.358-2.91,2.904-4.357,6.328-4.357,10.282,0,3.95,1.447,7.437,4.357,10.458,2.904,3.018,6.328,4.533,10.284,4.533,3.948,0,7.374-1.515,10.285-4.533,2.901-3.021,4.357-6.508,4.357-10.458" fill-rule="nonzero" fill="#FFF"/>
    </g>
    <g transform="translate(823.8799,498.7778)">
     <path d="m0,0c0-3.954-1.454-7.381-4.357-10.285-2.908-2.907-6.333-4.355-10.284-4.355-3.954,0-7.381,1.448-10.285,4.355-2.907,2.904-4.357,6.331-4.357,10.285,0,3.949,1.45,7.376,4.357,10.283,2.904,2.904,6.331,4.358,10.285,4.358,3.951,0,7.376-1.454,10.284-4.358,2.903-2.907,4.357-6.334,4.357-10.283m0,36.951c0-3.954-1.454-7.381-4.357-10.283-2.908-2.909-6.333-4.357-10.284-4.357-3.954,0-7.381,1.448-10.285,4.357-2.907,2.902-4.357,6.329-4.357,10.283,0,3.949,1.45,7.376,4.357,10.282,2.904,2.905,6.331,4.358,10.285,4.358,3.951,0,7.376-1.453,10.284-4.358,2.903-2.906,4.357-6.333,4.357-10.282m-36.603-73.554c0-3.954-1.454-7.381-4.357-10.282-2.907-2.91-6.335-4.358-10.283-4.358-3.954,0-7.382,1.448-10.283,4.358-2.911,2.901-4.358,6.328-4.358,10.282,0,3.949,1.447,7.376,4.358,10.283,2.901,2.904,6.329,4.357,10.283,4.357,3.948,0,7.376-1.453,10.283-4.357,2.903-2.907,4.357-6.334,4.357-10.283m0,110.16c0-3.954-1.454-7.381-4.357-10.285-2.907-2.907-6.335-4.357-10.283-4.357-3.954,0-7.382,1.45-10.283,4.357-2.911,2.904-4.358,6.331-4.358,10.285,0,3.949,1.447,7.376,4.358,10.283,2.901,2.904,6.329,4.358,10.283,4.358,3.948,0,7.376-1.454,10.283-4.358,2.903-2.907,4.357-6.334,4.357-10.283m0,110.15c0-3.951-1.454-7.377-4.357-10.282-2.907-2.906-6.335-4.357-10.283-4.357-3.954,0-7.382,1.451-10.283,4.357-2.911,2.905-4.358,6.331-4.358,10.282,0,3.95,1.447,7.376,4.358,10.286,2.901,2.902,6.329,4.358,10.283,4.358,3.948,0,7.376-1.456,10.283-4.358,2.903-2.91,4.357-6.336,4.357-10.286m-36.6-220.31c0-3.954-1.456-7.381-4.359-10.282-2.91-2.91-6.335-4.358-10.285-4.358-3.955,0-7.379,1.448-10.282,4.358-2.91,2.901-4.357,6.328-4.357,10.282,0,3.949,1.447,7.376,4.357,10.283,2.903,2.904,6.327,4.357,10.282,4.357,3.95,0,7.375-1.453,10.285-4.357,2.903-2.907,4.359-6.334,4.359-10.283m0,110.16c0-3.954-1.456-7.381-4.359-10.285-2.91-2.907-6.335-4.357-10.285-4.357-3.955,0-7.379,1.45-10.282,4.357-2.91,2.904-4.357,6.331-4.357,10.285,0,3.949,1.447,7.376,4.357,10.283,2.903,2.904,6.327,4.358,10.282,4.358,3.95,0,7.375-1.454,10.285-4.358,2.903-2.907,4.359-6.334,4.359-10.283m0,110.15c0-3.951-1.456-7.377-4.359-10.282-2.91-2.906-6.335-4.357-10.285-4.357-3.955,0-7.379,1.451-10.282,4.357-2.91,2.905-4.357,6.331-4.357,10.282,0,3.95,1.447,7.376,4.357,10.286,2.903,2.902,6.327,4.358,10.282,4.358,3.95,0,7.375-1.456,10.285-4.358,2.903-2.91,4.359-6.336,4.359-10.286m-36.954-220.31c0-3.954-1.453-7.381-4.358-10.282-2.906-2.91-6.334-4.358-10.282-4.358-3.954,0-7.382,1.448-10.283,4.358-2.91,2.901-4.358,6.328-4.358,10.282,0,3.949,1.448,7.376,4.358,10.283,2.901,2.904,6.329,4.357,10.283,4.357,3.948,0,7.376-1.453,10.282-4.357,2.905-2.907,4.358-6.334,4.358-10.283m0,110.16c0-3.954-1.453-7.381-4.358-10.285-2.906-2.907-6.334-4.357-10.282-4.357-3.954,0-7.382,1.45-10.283,4.357-2.91,2.904-4.358,6.331-4.358,10.285,0,3.949,1.448,7.376,4.358,10.283,2.901,2.904,6.329,4.358,10.283,4.358,3.948,0,7.376-1.454,10.282-4.358,2.905-2.907,4.358-6.334,4.358-10.283m0,110.15c0-3.951-1.453-7.377-4.358-10.282-2.906-2.906-6.334-4.357-10.282-4.357-3.954,0-7.382,1.451-10.283,4.357-2.91,2.905-4.358,6.331-4.358,10.282,0,3.95,1.448,7.376,4.358,10.286,2.901,2.902,6.329,4.358,10.283,4.358,3.948,0,7.376-1.456,10.282-4.358,2.905-2.91,4.358-6.336,4.358-10.286m-18.125-36.95c0-3.954-1.456-7.378-4.358-10.282-2.91-2.91-6.337-4.358-10.286-4.358-3.954,0-7.378,1.448-10.282,4.358-2.909,2.904-4.358,6.328-4.358,10.282,0,4.186,1.449,7.723,4.358,10.633,2.904,2.904,6.328,4.358,10.282,4.358,3.949,0,7.376-1.454,10.286-4.358,2.902-2.91,4.358-6.447,4.358-10.633m-18.48-146.76c0-3.954-1.457-7.381-4.358-10.285-2.91-2.907-6.336-4.355-10.286-4.355-3.954,0-7.378,1.448-10.282,4.355-2.91,2.904-4.357,6.331-4.357,10.285,0,3.949,1.447,7.376,4.357,10.283,2.904,2.904,6.328,4.358,10.282,4.358,3.95,0,7.376-1.454,10.286-4.358,2.901-2.907,4.358-6.334,4.358-10.283m0,36.951c0-3.954-1.457-7.381-4.358-10.283-2.91-2.909-6.336-4.357-10.286-4.357-3.954,0-7.378,1.448-10.282,4.357-2.91,2.902-4.357,6.329-4.357,10.283,0,3.949,1.447,7.376,4.357,10.282,2.904,2.905,6.328,4.358,10.282,4.358,3.95,0,7.376-1.453,10.286-4.358,2.901-2.906,4.358-6.333,4.358-10.282m0,36.603c0-3.954-1.457-7.381-4.358-10.285-2.91-2.907-6.336-4.357-10.286-4.357-3.954,0-7.378,1.45-10.282,4.357-2.91,2.904-4.357,6.331-4.357,10.285,0,3.949,1.447,7.376,4.357,10.283,2.904,2.904,6.328,4.358,10.282,4.358,3.95,0,7.376-1.454,10.286-4.358,2.901-2.907,4.358-6.334,4.358-10.283m0,36.604c0-3.955-1.457-7.381-4.358-10.285-2.91-2.908-6.336-4.358-10.286-4.358-3.954,0-7.378,1.45-10.282,4.358-2.91,2.904-4.357,6.33-4.357,10.285,0,3.946,1.447,7.373,4.357,10.282,2.904,2.905,6.328,4.358,10.282,4.358,3.95,0,7.376-1.453,10.286-4.358,2.901-2.909,4.358-6.336,4.358-10.282" fill-rule="nonzero" fill="#FFF"/>
    </g>
   </g>
  </g>
 </g>
</svg>
