<!-- Created with Inkscape (http://www.inkscape.org/) -->
<svg xmlns:rdf="http://www.w3.org/1999/02/22-rdf-syntax-ns#" xmlns="http://www.w3.org/2000/svg" version="1.1" xmlns:cc="http://creativecommons.org/ns#" xmlns:dc="http://purl.org/dc/elements/1.1/" viewBox="0 0 473.97 384.27">
 <defs>
  <clipPath id="clipPath3001" clipPathUnits="userSpaceOnUse">
   <path d="M0,864,864,864,864,0,0,0,0,864z"/>
  </clipPath>
 </defs>
 <metadata>
  <rdf:RDF>
   <cc:Work rdf:about="">
    <dc:format>image/svg+xml</dc:format>
    <dc:type rdf:resource="http://purl.org/dc/dcmitype/StillImage"/>
    <dc:title/>
   </cc:Work>
  </rdf:RDF>
 </metadata>
 <g transform="translate(368.41776,285.48837)">
  <g transform="matrix(1.25,0,0,-1.25,-670.17868,477.89777)">
   <g clip-path="url(#clipPath3001)">
    <g transform="translate(620.1357,362.4824)">
     <path d="m0,0c1.063-7.918-4.51-15.197-12.449-16.258l-317.91-42.488c-7.939-1.061-15.238,4.498-16.301,12.417l-31.615,235.36c-1.064,7.919,4.509,15.198,12.449,16.259l317.91,42.487c7.938,1.061,15.236-4.498,16.301-12.417l31.619-235.36z" fill-rule="nonzero" fill="#ed363a"/>
    </g>
    <g transform="translate(620.1357,362.4824)">
     <path stroke-linejoin="miter" d="m0,0c1.063-7.918-4.51-15.197-12.449-16.258l-317.91-42.488c-7.939-1.061-15.238,4.498-16.301,12.417l-31.615,235.36c-1.064,7.919,4.509,15.198,12.449,16.259l317.91,42.487c7.938,1.061,15.236-4.498,16.301-12.417l31.619-235.36z" stroke="#292929" stroke-linecap="butt" stroke-miterlimit="10" stroke-dasharray="none" stroke-width="0.65499997" fill="none"/>
    </g>
    <g transform="translate(609.7686,363.2725)">
     <path d="m0,0c0.283-2.112-1.203-4.054-3.32-4.337l-318.83-42.61c-2.117-0.283-4.063,1.199-4.347,3.312l-18.23,135.72c-0.284,2.112,1.202,4.054,3.319,4.336l318.83,42.61c2.117,0.283,4.063-1.199,4.348-3.311l18.232-135.73z" fill-rule="nonzero" fill="#FFF"/>
    </g>
    <g transform="translate(324.8721,557.9502)">
     <path d="m0,0,2.333-17.362,18.358,2.453-2.333,17.362,9.973,1.333,6.078-45.242-9.973-1.333-2.622,19.516l-18.358-2.454,2.622-19.516-9.974-1.332-6.078,45.242,9.974,1.333z" fill-rule="nonzero" fill="#FFF"/>
    </g>
    <g transform="translate(395.8916,567.4419)">
     <path d="m0,0,1.124-8.364-23.948-3.201,1.302-9.695,21.979,2.938,1.038-7.731-21.979-2.937,1.489-11.089,24.457,3.269,1.124-8.364-34.431-4.602-6.077,45.242l33.922,4.534z" fill-rule="nonzero" fill="#FFF"/>
    </g>
    <g transform="translate(413.1069,569.7422)">
     <path d="m0,0,4.953-36.878,22.107,2.955,1.123-8.364l-32.079-4.288-6.078,45.242,9.974,1.333z" fill-rule="nonzero" fill="#FFF"/>
    </g>
    <g transform="translate(450.7764,574.7764)">
     <path d="m0,0,4.954-36.878,22.106,2.955,1.124-8.364l-32.081-4.287-6.078,45.241,9.975,1.333z" fill-rule="nonzero" fill="#FFF"/>
    </g>
    <g transform="translate(490.9512,551.2817)">
     <path d="m0,0c0.687-1.737,1.612-3.258,2.78-4.563,1.166-1.307,2.592-2.288,4.275-2.944,1.683-0.657,3.647-0.835,5.89-0.535,2.246,0.3,4.094,0.987,5.545,2.063,1.449,1.075,2.565,2.396,3.348,3.962,0.78,1.566,1.272,3.277,1.476,5.133,0.205,1.854,0.177,3.732-0.078,5.633-0.266,1.985-0.748,3.877-1.442,5.676-0.693,1.8-1.626,3.364-2.796,4.691-1.171,1.327-2.596,2.319-4.277,2.976-1.685,0.655-3.649,0.835-5.895,0.534-2.243-0.3-4.092-0.988-5.541-2.063-1.451-1.076-2.566-2.406-3.345-3.994-0.778-1.588-1.264-3.34-1.459-5.259s-0.158-3.87,0.108-5.855c0.256-1.901,0.725-3.72,1.411-5.455m-11.123,13.736c0.626,3.029,1.75,5.749,3.365,8.158,1.617,2.409,3.73,4.41,6.339,6.007,2.608,1.596,5.649,2.625,9.124,3.09,3.514,0.469,6.73,0.275,9.647-0.581,2.918-0.859,5.474-2.236,7.668-4.136,2.196-1.9,3.996-4.229,5.401-6.986,1.405-2.758,2.335-5.827,2.789-9.206,0.443-3.295,0.348-6.436-0.287-9.424-0.634-2.987-1.761-5.664-3.382-8.031s-3.729-4.335-6.32-5.908c-2.592-1.572-5.645-2.593-9.16-3.062-3.472-0.464-6.677-0.279-9.611,0.554-2.936,0.833-5.499,2.178-7.688,4.036-2.189,1.857-3.985,4.144-5.383,6.859-1.4,2.716-2.319,5.722-2.763,9.016-0.454,3.379-0.368,6.584,0.261,9.614" fill-rule="nonzero" fill="#FFF"/>
    </g>
    <g transform="translate(347.4829,503.4678)">
     <path d="m0,0,6.39-12.833,0.055,0.007,2.532,14.025,6.066,0.812,2.627-19.553-4.035-0.539-1.862,13.857-0.055-0.007-2.942-14.498-3.322-0.445-6.647,13.077-0.056-0.007,1.843-13.719-4.035-0.54l-2.627,19.552,6.068,0.811z" fill-rule="nonzero" fill="#FFF"/>
    </g>
    <g transform="translate(364.2007,505.7021)">
     <path d="m0,0,4.832,0.646,5.623-7.11,3.519,8.331,4.804,0.642-5.656-13.021,1.008-7.503-4.31-0.576-1.023,7.613l-8.797,10.978z" fill-rule="nonzero" fill="#FFF"/>
    </g>
    <g transform="translate(396.5396,510.0234)">
     <path d="m0,0,9.944-12.022,0.054,0.006-1.762,13.117,4.036,0.54,2.626-19.552-4.31-0.576l-9.911,11.999-0.055-0.007,1.758-13.089-4.036-0.54-2.626,19.553,4.282,0.571z" fill-rule="nonzero" fill="#FFF"/>
    </g>
    <g transform="translate(424.2314,501.5161)">
     <path d="M0,0-3.434,6.844-3.488,6.836-5.078-0.679,0,0zm-1.858,11.96,9.958-18.571-4.476-0.598l-2.067,4.155-7.33-0.98-0.953-4.559-4.337-0.58,4.785,20.543,4.42,0.59z" fill-rule="nonzero" fill="#FFF"/>
    </g>
    <g transform="translate(437.4727,515.4941)">
     <path d="M0,0,6.39-12.832,6.445-12.825,8.977,1.2,15.044,2.011,17.671-17.541,13.635-18.08,11.772-4.224,11.719-4.231,8.776-18.729,5.454-19.173-1.194-6.097-1.249-6.104,0.595-19.823-3.441-20.362-6.067-0.811,0,0z" fill-rule="nonzero" fill="#FFF"/>
    </g>
    <g transform="translate(470.9639,519.9707)">
     <path d="m0,0,0.486-3.615-10.349-1.383,0.562-4.19,9.499,1.27,0.449-3.34-9.5-1.27,0.644-4.793,10.57,1.413,0.486-3.614-14.88-1.989-2.626,19.552l14.659,1.959z" fill-rule="nonzero" fill="#FFF"/>
    </g>
    <g transform="translate(486.0361,521.9849)">
     <path d="M0,0,2.626-19.551-1.685-20.128-4.311-0.576,0,0z" fill-rule="nonzero" fill="#FFF"/>
    </g>
    <g transform="translate(495.0967,508.1992)">
     <path d="m0,0c0.3-0.425,0.666-0.752,1.096-0.983,0.432-0.23,0.923-0.378,1.472-0.444,0.55-0.066,1.107-0.06,1.675,0.015,0.384,0.052,0.792,0.138,1.223,0.261,0.43,0.123,0.825,0.3,1.186,0.534,0.36,0.234,0.645,0.528,0.859,0.882,0.215,0.354,0.288,0.777,0.219,1.27-0.07,0.529-0.297,0.936-0.678,1.219-0.384,0.283-0.864,0.498-1.444,0.643-0.578,0.146-1.225,0.255-1.943,0.326s-1.447,0.16-2.187,0.265c-0.757,0.085-1.5,0.213-2.233,0.385-0.73,0.171-1.398,0.431-2.004,0.777-0.606,0.347-1.12,0.812-1.543,1.397s-0.694,1.324-0.814,2.219c-0.136,1.004-0.037,1.904,0.293,2.701,0.331,0.797,0.811,1.488,1.44,2.074,0.629,0.585,1.368,1.056,2.213,1.411,0.849,0.354,1.71,0.59,2.589,0.708,1.024,0.137,2.023,0.154,2.997,0.052,0.973-0.102,1.859-0.36,2.661-0.773,0.801-0.414,1.47-0.989,2.007-1.725,0.535-0.736,0.88-1.671,1.032-2.803l-4.173-0.557c-0.114,0.579-0.303,1.046-0.564,1.401-0.263,0.355-0.583,0.62-0.96,0.793-0.376,0.172-0.797,0.273-1.256,0.306-0.461,0.03-0.957,0.011-1.487-0.06-0.349-0.046-0.692-0.13-1.03-0.249-0.337-0.119-0.636-0.29-0.895-0.51-0.26-0.221-0.461-0.48-0.607-0.778-0.147-0.299-0.192-0.658-0.136-1.078,0.052-0.383,0.166-0.684,0.344-0.901,0.18-0.218,0.497-0.399,0.953-0.542,0.459-0.144,1.081-0.265,1.866-0.363,0.787-0.1,1.814-0.223,3.082-0.37,0.375-0.024,0.902-0.088,1.576-0.192,0.676-0.105,1.362-0.326,2.061-0.66,0.696-0.335,1.324-0.821,1.885-1.462,0.562-0.641,0.915-1.508,1.062-2.603,0.122-0.895,0.059-1.749-0.187-2.562-0.244-0.814-0.671-1.544-1.284-2.192-0.61-0.65-1.402-1.196-2.379-1.643-0.973-0.446-2.129-0.758-3.464-0.937-1.08-0.144-2.145-0.151-3.197-0.023-1.051,0.129-2.003,0.425-2.857,0.887-0.856,0.461-1.568,1.1-2.144,1.915-0.576,0.816-0.934,1.827-1.077,3.034l4.171,0.558c0.089-0.657,0.283-1.199,0.581-1.623" fill-rule="nonzero" fill="#FFF"/>
    </g>
    <g transform="translate(335.7793,349.4619)">
     <path d="m0,0c-1.725-1.081-3.617-2.202-5.677-3.368-2.061-1.165-4.198-2.028-6.41-2.588-3.356-0.852-6.217-0.684-8.587,0.498-0.523,0.651-0.952,1.079-1.287,1.279-0.269,0.217-0.528,0.455-0.771,0.716-0.245,0.259-0.469,0.648-0.671,1.168-1.042,0.733-1.957,1.661-2.741,2.785-0.784,1.121-1.427,2.315-1.925,3.58-0.5,1.265-0.869,2.58-1.108,3.949-0.24,1.367-0.346,2.696-0.316,3.988,0.066,0.301,0.081,0.592,0.048,0.869-0.035,0.275-0.061,0.59-0.079,0.944-0.005,1.139,0.017,2.253,0.065,3.335,0.045,1.082,0.243,2.06,0.593,2.936-0.421,0.534-0.592,1.204-0.51,2.012,0.08,0.804,0.211,1.551,0.396,2.241,0.291,2.786,0.53,5.149,0.718,7.089,0.186,1.937,0.393,3.863,0.622,5.779,0.374,3.307,0.691,6.562,0.948,9.769,0.258,3.207,0.355,6.623,0.293,10.248,0.451,0.47,0.794,0.805,1.028,1.009,0.37,0.236,0.678,0.422,0.93,0.557,1.361-0.297,2.918-0.527,4.672-0.689s3.168-0.106,4.241,0.166c0.621-0.201,1.02-0.367,1.197-0.5s0.348-0.25,0.518-0.35c0.958-0.686,1.82-1.413,2.587-2.182,0.766-0.769,1.236-1.918,1.409-3.443-0.249-0.706-0.475-1.083-0.676-1.134,0.004-1.43-0.059-2.658-0.189-3.69-0.131-1.034-0.278-2.07-0.443-3.11-0.214-1.126-0.394-2.241-0.542-3.349-0.147-1.109-0.168-2.437-0.062-3.979-0.183-0.404-0.291-0.753-0.323-1.045-0.032-0.295-0.074-0.627-0.123-0.995-0.05-0.371-0.112-0.762-0.185-1.172-0.074-0.412-0.244-0.794-0.512-1.146,0.242-1.796,0.28-3.285,0.116-4.468-0.164-1.185-0.345-2.372-0.542-3.563-0.311-2.151-0.539-4.278-0.683-6.384-0.144-2.108,0.032-4.418,0.527-6.934,0.301,0.219,0.603,0.367,0.905,0.443,0.301,0.078,0.587,0.15,0.855,0.217,0.604,0.154,1.333,0.233,2.19,0.235,1.74,1.583,3.774,2.778,6.104,3.582,2.329,0.805,4.659,1.538,6.991,2.201,0.938,0.238,1.876,0.475,2.817,0.715,0.938,0.237,1.794,0.525,2.564,0.865,0.689-0.183,1.121-0.27,1.298-0.261,0.175,0.009,0.431,0.056,0.767,0.141,0.468,0.119,0.88,0.187,1.233,0.206,0.991-0.534,1.898-0.875,2.722-1.022,0.822-0.15,1.671-0.256,2.544-0.319,0.805-0.082,1.598-0.183,2.379-0.307,0.781-0.123,1.575-0.369,2.381-0.734l1.802-4.147c0.621-0.486,0.925-0.837,0.909-1.054,0.137-0.538,0.104-0.975-0.095-1.311l0.481-1.054c-0.955-0.457-1.583-0.868-1.884-1.228-0.301-0.363-0.577-0.753-0.826-1.173-0.52-0.205-0.897-0.335-1.132-0.394-0.236-0.06-0.453-0.115-0.654-0.166-0.94-0.239-2.037-0.696-3.293-1.37-1.964,0.144-3.919-0.031-5.863-0.524-0.74-0.187-1.5-0.418-2.288-0.687-0.788-0.272-1.576-0.543-2.364-0.814-0.771-0.34-1.567-0.648-2.388-0.927-0.823-0.28-1.669-0.53-2.54-0.751l-2.161-1.19z" fill-rule="nonzero" fill="#374e9a"/>
    </g>
    <g transform="translate(382.0181,387.5283)">
     <path d="M0,0c1.979,0.644,3.767,1.259,5.368,1.844,1.601,0.582,3.357,1.332,5.266,2.246-0.98,1.891-2.014,3.86-3.104,5.904-1.09,2.043-2.207,4.061-3.355,6.056l-0.349-1.16c-0.985-1.749-1.876-3.653-2.674-5.71-0.799-2.06-1.439-3.97-1.919-5.734-0.249-0.705-0.499-1.411-0.748-2.118-0.249-0.704-0.465-1.402-0.647-2.091,0.386,0.168,0.762,0.302,1.132,0.396,0.367,0.093,0.711,0.216,1.03,0.367m33.488-10.03c-0.113-1.243-0.407-2.55-0.88-3.918-0.473-1.37-1.116-2.638-1.925-3.808-0.811-1.168-1.777-2.217-2.897-3.143-1.122-0.928-2.378-1.603-3.768-2.028-0.924-0.018-1.566,0.051-1.927,0.208-0.362,0.159-0.736,0.295-1.121,0.412-0.236,0.082-0.451,0.154-0.644,0.211-0.193,0.059-0.365,0.103-0.515,0.137l-1.336,0.197,0.071,1.41c-0.002,0.57-0.142,0.982-0.419,1.233-0.278,0.25-0.786,0.566-1.526,0.95-0.253,0.15-0.505,0.301-0.757,0.45-0.252,0.152-0.472,0.309-0.656,0.478l-2.196,1.476,2.538,1.394c1.557,0.893,2.528,1.782,2.911,2.665,0.382,0.882,0.287,2.178-0.29,3.889-1.41-0.074-2.542-0.324-3.396-0.754-0.854-0.431-1.717-0.901-2.588-1.407-1.121-0.642-2.274-1.237-3.455-1.786-1.182-0.55-2.51-1.012-3.984-1.385-0.539-0.137-1.045-0.248-1.523-0.331-0.478-0.087-0.994-0.165-1.547-0.233l-1.057-0.055c-0.322,0.703-0.563,1.09-0.721,1.157-0.161,0.065-0.324,0.148-0.492,0.249-0.422,0.25-0.889,0.614-1.401,1.091-0.514,0.475-0.78,1.174-0.8,2.099-0.49,0.519-0.844,1.07-1.063,1.657-0.198-0.906-0.288-1.822-0.268-2.744l-0.147-1.109-0.955-0.455c-0.118-0.103-0.18-0.279-0.187-0.53-0.007-0.253,0.006-0.445,0.04-0.578l-0.07-1.839c-0.1-0.169-0.204-0.32-0.313-0.454-0.11-0.134-0.213-0.286-0.312-0.454,0.017-0.638,0.004-1.284-0.045-1.938-0.048-0.655-0.104-1.277-0.169-1.863-0.115-0.959-0.182-1.886-0.205-2.784-0.022-0.899,0.102-1.74,0.373-2.528l-0.121-1.208c-0.234-0.488-0.521-0.9-0.864-1.237s-0.69-0.657-1.042-0.959c-0.101-0.169-0.255-0.333-0.464-0.493-0.21-0.161-0.373-0.291-0.489-0.392l-0.022-1.183-1.155-0.508c-0.705-0.321-1.199-0.552-1.483-0.697-0.286-0.142-0.629-0.266-1.032-0.369l-1.03-0.154c-0.893,0.416-1.585,0.758-2.081,1.026-0.495,0.265-1.055,0.497-1.676,0.697-0.808,0.653-1.296,1.171-1.466,1.558-0.168,0.385-0.329,0.735-0.482,1.055-0.235,0.369-0.403,0.681-0.506,0.941-0.101,0.26-0.235,0.44-0.404,0.541l-1.615,0.875,0.878,1.187-0.334,1.736c0.475,3.76,1.066,7.406,1.775,10.942,0.71,3.536,1.453,7.151,2.229,10.845,0.264,1.208,0.512,2.413,0.744,3.615,0.23,1.201,0.477,2.405,0.742,3.615-0.118,0.184-0.211,0.41-0.28,0.678-0.067,0.268-0.078,0.586-0.028,0.956,0.448,1.327,0.793,2.503,1.032,3.529,0.24,1.023,0.476,2.064,0.707,3.124,0.247,1.275,0.52,2.522,0.819,3.74,0.297,1.217,0.738,2.507,1.321,3.869l1.431,1.112c0.184,0.118,0.397,0.262,0.64,0.431,0.242,0.167,0.531,0.295,0.868,0.38l1.559,0.182c1.656,1.346,2.99,2.987,3.999,4.921,1.009,1.933,1.969,4.195,2.884,6.783l0.649,1.663,1.512-0.475c0.386-0.115,0.902-0.181,1.549-0.195,0.646-0.015,1.329-0.037,2.052-0.069,1.275,0.038,2.491,0.026,3.65-0.037,1.157-0.065,2.157-0.346,2.998-0.845,0.675-0.973,1.113-1.718,1.316-2.237,0.203-0.521,0.44-1.031,0.711-1.534,0.491-1.089,0.963-2.181,1.421-3.279,0.456-1.1,0.896-2.343,1.322-3.734,0.624-1.055,1.193-2.107,1.709-3.153,0.515-1.047,1.019-2.117,1.509-3.205,0.743-1.524,1.473-2.999,2.193-4.423,0.717-1.424,1.514-2.739,2.391-3.943,0.536,0.137,0.88,0.186,1.032,0.154,0.301,0.219,0.628,0.408,0.98,0.569s0.753,0.334,1.206,0.522l1.082,0.38,0.657-0.903c0.151-0.32,0.573-0.57,1.261-0.751,0.888,0.153,1.573,0.131,2.052-0.07,0.479-0.199,0.928-0.425,1.349-0.676,0.335-0.2,0.655-0.332,0.958-0.398l1.662-0.221-0.422-1.713c-0.365-1.378-1.028-2.777-1.987-4.198-0.961-1.422-2.118-2.697-3.473-3.825,0.168-0.386,0.316-0.76,0.444-1.119,0.127-0.361,0.308-0.725,0.545-1.093,0.491-1.091,0.955-2.221,1.396-3.393,0.44-1.174,0.755-2.417,0.944-3.722l-0.1-0.454z" fill-rule="nonzero" fill="#374e9a"/>
    </g>
    <g transform="translate(443.4688,423.457)">
     <path d="m0,0c-0.467-1.26-1.041-2.442-1.725-3.543-0.685-1.102-1.332-2.211-1.939-3.328-0.611-1.119-1.109-2.317-1.498-3.593-0.391-1.277-0.533-2.688-0.428-4.231,2.279,0.863,4.561,2.137,6.848,3.826,2.283,1.684,4.447,3.285,6.49,4.804-0.795,2.01-1.943,3.504-3.437,4.481-1.498,0.976-2.936,1.505-4.311,1.584m-5.635-38.156c-0.058-2.871-0.197-5.065-0.418-6.583-0.222-1.521-0.717-3.163-1.482-4.927-0.904-0.088-1.485-0.342-1.733-0.762-0.253-0.419-0.545-0.814-0.878-1.185-0.57-0.286-1.006-0.397-1.308-0.332-0.302,0.068-0.575,0.159-0.818,0.274-0.245,0.117-0.539,0.223-0.883,0.312-0.344,0.09-0.818,0.059-1.422-0.093-0.271,0.503-0.549,0.967-0.835,1.393-0.287,0.426-0.783,0.481-1.486,0.16-0.002,0.57-0.084,1.031-0.244,1.383-0.161,0.351-0.33,0.666-0.506,0.942-0.178,0.277-0.339,0.557-0.482,0.843-0.143,0.284-0.209,0.678-0.192,1.182-0.337-0.085-0.663,0.081-0.983,0.5-0.321,0.418-0.676,0.828-1.062,1.23-0.105,1.257-0.193,2.449-0.264,3.574-0.071,1.122-0.075,2.192-0.011,3.209,0.064,1.015,0.078,2.018,0.04,3.009-0.036,0.989-0.384,1.936-1.041,2.839,0.318-0.132,0.506-0.031,0.565,0.305,0.057,0.336,0.056,0.764-0.005,1.283-0.061,0.521-0.154,1.034-0.282,1.537-0.127,0.501-0.268,0.912-0.419,1.231,0.228,1.912,0.326,3.847,0.295,5.803-0.032,1.954-0.094,3.884-0.183,5.79-0.092,1.904-0.156,3.777-0.196,5.626-0.04,1.843,0.088,3.59,0.385,5.236,0.703,0.32,1.547,0.445,2.528,0.373,0.983-0.072,1.634-0.318,1.955-0.735,1.402,1.782,2.532,3.801,3.39,6.053,0.856,2.251,1.759,4.46,2.708,6.629,0.949,2.168,2.101,4.174,3.453,6.016,1.353,1.842,3.304,3.228,5.851,4.161,1.596-0.667,3.348-1.312,5.256-1.934,1.906-0.623,3.61-1.637,5.108-3.04,0.603-0.133,1.129-0.304,1.574-0.512s0.978-0.413,1.601-0.611l0.307-1.208c0.99-0.534,1.863-1.223,2.611-2.067,0.75-0.846,1.467-1.769,2.149-2.775,0.683-1.004,1.367-2.009,2.051-3.013,0.681-1.005,1.42-1.942,2.211-2.812-0.049-0.371-0.043-0.672,0.015-0.907,0.061-0.235,0.176-0.474,0.342-0.716,0.17-0.243,0.32-0.491,0.457-0.74,0.135-0.252,0.229-0.622,0.281-1.106,0.547-3.004,0.194-5.626-1.056-7.871-1.252-2.245-2.936-4.261-5.053-6.047-2.115-1.786-4.447-3.429-6.992-4.931-2.547-1.503-4.807-3.005-6.782-4.505,0.069-0.268,0.217-0.372,0.454-0.312,0.234,0.059,0.361-0.088,0.378-0.44,1.866-0.598,3.342-1.08,4.436-1.444,1.092-0.365,2.107-0.645,3.049-0.834,0.941-0.19,1.935-0.313,2.984-0.367,1.049-0.055,2.496-0.063,4.342-0.024s3.285,0.066,4.316,0.078c1.032,0.011,1.973,0.036,2.821,0.073,0.847,0.035,1.701,0.11,2.566,0.222,0.863,0.113,2.084,0.296,3.66,0.554,0.758-0.45,1.459-1.041,2.11-1.767,0.648-0.729,1.144-1.495,1.492-2.298,0.348-0.806,0.584-1.603,0.713-2.39,0.129-0.789,0.052-1.468-0.233-2.039,0.118-0.185,0.291-0.232,0.518-0.137,0.225,0.093,0.48,0.139,0.767,0.141-0.334-0.371-0.587-0.79-0.751-1.262-0.166-0.47-0.333-0.94-0.499-1.411-0.167-0.47-0.38-0.898-0.638-1.286-0.26-0.387-0.682-0.69-1.268-0.909-1.875-1.333-4.478-2.047-7.808-2.143-3.332-0.095-7.649,0.187-12.955,0.838-2.653,0.325-4.823,0.651-6.51,0.973-1.688,0.321-3.174,0.693-4.459,1.117-1.285,0.425-2.483,0.923-3.592,1.498-1.111,0.575-2.447,1.27-4.01,2.088" fill-rule="nonzero" fill="#374e9a"/>
    </g>
    <g transform="translate(499.2031,437.5923)">
     <path d="m0,0c-0.467-1.261-1.041-2.442-1.725-3.543-0.683-1.102-1.332-2.212-1.939-3.329-0.611-1.119-1.109-2.316-1.498-3.592-0.391-1.278-0.533-2.689-0.426-4.232,2.277,0.863,4.561,2.139,6.846,3.826,2.283,1.686,4.449,3.287,6.49,4.804-0.795,2.011-1.943,3.504-3.437,4.482-1.498,0.975-2.936,1.504-4.311,1.584m-5.635-38.157c-0.058-2.871-0.197-5.064-0.418-6.583-0.222-1.52-0.715-3.162-1.48-4.927-0.906-0.087-1.487-0.341-1.735-0.761-0.252-0.419-0.543-0.815-0.877-1.186-0.57-0.286-1.007-0.396-1.308-0.332-0.303,0.069-0.576,0.159-0.818,0.276-0.247,0.116-0.54,0.221-0.883,0.31-0.344,0.091-0.819,0.061-1.422-0.093-0.272,0.503-0.551,0.968-0.836,1.394-0.287,0.427-0.783,0.48-1.484,0.16-0.004,0.569-0.086,1.03-0.247,1.384-0.16,0.349-0.328,0.665-0.505,0.94-0.178,0.278-0.338,0.558-0.481,0.843-0.144,0.284-0.209,0.679-0.193,1.183-0.336-0.085-0.662,0.082-0.983,0.5-0.322,0.418-0.675,0.828-1.062,1.229-0.106,1.259-0.194,2.449-0.264,3.574-0.07,1.122-0.074,2.193-0.012,3.209,0.065,1.015,0.079,2.019,0.041,3.009-0.037,0.989-0.384,1.937-1.041,2.841,0.317-0.134,0.506-0.032,0.565,0.304,0.057,0.336,0.057,0.763-0.004,1.284-0.063,0.519-0.156,1.032-0.283,1.535-0.127,0.502-0.268,0.912-0.418,1.231,0.226,1.914,0.326,3.847,0.295,5.803-0.033,1.954-0.094,3.885-0.184,5.79-0.092,1.905-0.156,3.778-0.195,5.626-0.041,1.844,0.088,3.591,0.385,5.237,0.703,0.32,1.546,0.445,2.529,0.373,0.98-0.073,1.633-0.318,1.953-0.736,1.402,1.783,2.531,3.801,3.389,6.054,0.857,2.251,1.759,4.46,2.709,6.629,0.949,2.168,2.101,4.174,3.453,6.015,1.353,1.842,3.304,3.229,5.851,4.162,1.596-0.667,3.348-1.312,5.256-1.934,1.906-0.623,3.61-1.638,5.108-3.041,0.603-0.133,1.129-0.303,1.574-0.511,0.445-0.209,0.978-0.413,1.601-0.611l0.307-1.208c0.992-0.534,1.863-1.224,2.611-2.067,0.75-0.846,1.467-1.77,2.151-2.775,0.681-1.005,1.365-2.009,2.049-3.014,0.681-1.004,1.42-1.942,2.211-2.811-0.049-0.372-0.043-0.672,0.015-0.907,0.061-0.235,0.176-0.474,0.342-0.716,0.17-0.243,0.322-0.491,0.457-0.74,0.135-0.252,0.229-0.622,0.281-1.107,0.547-3.004,0.194-5.626-1.056-7.871-1.252-2.244-2.934-4.261-5.053-6.046-2.115-1.787-4.447-3.429-6.992-4.931-2.547-1.503-4.807-3.005-6.782-4.504,0.069-0.27,0.219-0.373,0.454-0.314,0.234,0.06,0.361-0.088,0.378-0.439,1.866-0.599,3.342-1.08,4.436-1.445,1.092-0.365,2.107-0.644,3.049-0.834,0.941-0.189,1.935-0.312,2.984-0.367,1.049-0.054,2.496-0.062,4.342-0.023,1.846,0.04,3.285,0.065,4.318,0.078,1.032,0.011,1.971,0.035,2.819,0.072,0.847,0.035,1.703,0.112,2.566,0.223,0.863,0.112,2.084,0.296,3.662,0.554,0.756-0.451,1.457-1.04,2.108-1.767,0.648-0.73,1.144-1.495,1.492-2.299,0.348-0.806,0.584-1.602,0.713-2.39s0.052-1.467-0.233-2.039c0.118-0.184,0.291-0.23,0.518-0.136,0.226,0.092,0.48,0.138,0.767,0.14-0.334-0.371-0.585-0.79-0.751-1.26l-0.499-1.413c-0.166-0.469-0.38-0.898-0.638-1.286-0.26-0.386-0.682-0.689-1.268-0.909-1.875-1.332-4.478-2.047-7.808-2.141-3.332-0.096-7.649,0.185-12.955,0.837-2.653,0.326-4.823,0.651-6.51,0.972-1.688,0.321-3.174,0.694-4.459,1.117-1.285,0.425-2.483,0.924-3.592,1.498-1.109,0.576-2.447,1.271-4.01,2.088" fill-rule="nonzero" fill="#374e9a"/>
    </g>
    <g transform="translate(559.2559,433.0127)">
     <path d="m0,0c-0.369-0.521-0.646-1.111-0.838-1.765-0.191-0.656-0.379-1.327-0.558-2.016-0.151-0.823-0.34-1.62-0.573-2.392-0.232-0.773-0.582-1.505-1.049-2.194-0.082-1.091-0.216-1.965-0.406-2.619-0.191-0.656-0.562-1.447-1.113-2.37,0.01-2.853-0.828-6.171-2.508-9.952,0.086-0.622,0.051-1.255-0.107-1.901-0.157-0.647-0.336-1.281-0.536-1.902-0.083-0.236-0.162-0.489-0.236-0.755-0.074-0.272-0.129-0.482-0.162-0.631l0.055-1.058c-0.201-0.62-0.449-1.183-0.75-1.688-0.299-0.505-0.576-0.966-0.824-1.388-0.086-0.235-0.252-0.561-0.5-0.983l-1.358-0.988c-5.066-0.568-8.715,1.29-10.943,5.578l-0.155,1.031c0.049,0.37,0.077,0.751,0.084,1.146,0.008,0.394,0.026,0.81,0.059,1.246,0.029,1.006,0.111,2.026,0.242,3.059,0.129,1.033,0.471,2.012,1.022,2.937,0.015,0.502,0.125,1.333,0.332,2.493,0.203,1.158,0.613,2.921,1.226,5.291,0.532,1.847,0.946,3.307,1.244,4.383,0.299,1.074,0.547,1.923,0.748,2.545-0.945,0.902-1.996,1.672-3.156,2.306-1.297,1.454-2.459,2.873-3.488,4.255-1.029,1.38-1.863,2.632-2.504,3.754-0.289,0.854-0.576,1.568-0.863,2.138-0.289,0.568-0.584,1.171-0.887,1.81-0.389,0.686-0.744,1.38-1.064,2.085-0.323,0.703-0.584,1.458-0.789,2.262-0.456,0.384-0.776,0.803-0.961,1.255l-0.053,1.058c0.082,0.519-0.043,1.149-0.373,1.886-0.33,0.736-0.697,1.484-1.102,2.238-0.304,0.635-0.642,1.335-1.013,2.098-0.373,0.762-0.627,1.554-0.764,2.376-0.139,0.821-0.111,1.631,0.08,2.429,0.189,0.797,0.654,1.574,1.389,2.334l1.685,0.534c0.69-0.184,1.356-0.352,2.002-0.509,0.647-0.158,1.281-0.336,1.902-0.535,0.823-0.15,1.612-0.306,2.37-0.471,0.754-0.166,1.568-0.423,2.443-0.771l1.062-1.23,1.588-0.775,0.282-1.107c0.132-0.251,0.261-0.613,0.38-1.081,0.221-0.873,0.491-1.375,0.811-1.508l0.707-1.105c0.24-0.939,0.566-1.803,0.979-2.589,0.414-0.788,0.816-1.525,1.203-2.211,0.388-0.689,0.785-1.407,1.191-2.162,0.404-0.753,0.658-1.617,0.764-2.59,0.351,0.304,0.627,0.623,0.828,0.96,0.1,0.167,0.207,0.302,0.326,0.404,0.115,0.1,0.225,0.234,0.324,0.404l3.895,9.554-0.455,0.955,1.601,2.547c0.401,0.672,0.793,1.307,1.178,1.905,0.383,0.595,0.674,1.204,0.875,1.828l0.902,1.085c1.295,3.897,3.819,6.751,7.573,8.559l1.357,0.559,0.734-1.206c0.456-0.67,1.178-1.201,2.17-1.591,0.993-0.391,2.024-0.737,3.1-1.035l1.059-0.373c0.505-0.586,0.8-1.046,0.886-1.381,0.084-0.336,0.127-0.648,0.129-0.932l0.656-0.903c-0.128-1.747-0.484-3.086-1.068-4.019-0.584-0.934-1.17-1.795-1.752-2.587-0.469-0.69-0.898-1.317-1.291-1.88-0.392-0.563-0.639-1.215-0.736-1.952l-0.5-0.985c-1.205-1.162-1.838-2.465-1.901-3.906l0.004-1.285-1.207-0.306c-0.066-0.017-0.187-0.173-0.363-0.468-0.176-0.294-0.379-0.97-0.609-2.028-0.299-0.79-0.524-1.31-0.674-1.562-0.151-0.253-0.276-0.464-0.375-0.631,0-0.286-0.02-0.558-0.061-0.819s-0.086-0.576-0.134-0.944c-0.653-1.094-1.022-1.883-1.114-2.37-0.09-0.487-0.203-1.033-0.334-1.638-0.133-0.605-0.252-1.188-0.359-1.75-0.108-0.563-0.361-1.18-0.762-1.852l-0.119-1.638z" fill-rule="nonzero" fill="#374e9a"/>
    </g>
   </g>
  </g>
 </g>
</svg>
